# xmcd CD database file
#
# Track frame offsets:
#	150
#	13545
#	34872
#	50797
#	73792
#	97000
#	114710
#	133395
#	152670
#	170052
#
# Disc length: 2476 seconds
#
# Revision: 2
# Processed by: cddbd v1.4b41PL1 Copyright (c) Steve Scherf et al.
# Submitted via: Feurio! 1.52 - http://www.feurio.com
#
DISCID=9309aa0a
DTITLE=Nathalie Michel - Necessary Illusions
DYEAR=1900
DGENRE=
TTITLE0=This Is Not Revenge
TTITLE1=If I Want You
TTITLE2=Don't Give In
TTITLE3=The Wedding
TTITLE4=I'll Just Keep Walking
TTITLE5=Wave Goodbye
TTITLE6=Sometimes
TTITLE7=Mama Shot Papa
TTITLE8=You're Gone Too
TTITLE9=Johnny Heartbreaker
EXTD=
EXTT0=
EXTT1=
EXTT2=
EXTT3=
EXTT4=
EXTT5=
EXTT6=
EXTT7=
EXTT8=
EXTT9=
PLAYORDER=
